<?xml version="1.0" encoding="UTF-8"?>
      <mxfile host="codeviz.app" modified="2025-03-09T18:31:13.017Z" agent="CodeViz Exporter" version="14.6.5" type="device">
        <diagram id="codeviz-diagram" name="System Diagram">
          <mxGraphModel dx="1000" dy="1000" grid="1" gridSize="10" guides="1" tooltips="1" connect="1" arrows="1" fold="1" page="1" pageScale="1" pageWidth="1169" pageHeight="827" math="0" shadow="0">
            <root>
              <mxCell id="0"/>
              <mxCell id="1" parent="0"/>
              <mxCell id="Services" value="" style="html=1;whiteSpace=wrap;container=1;fillColor=#dae8fc;strokeColor=#6c8ebf;dashed=1;fillOpacity=20;strokeWidth=2;containerType=none;recursiveResize=0;movable=1;resizable=1;autosize=0;dropTarget=0" vertex="1" parent="1">
                <mxGeometry x="22" y="22" width="520" height="220" as="geometry"/>
              </mxCell>
              <mxCell id="Services_label" value="Services" style="edgeLabel;html=1;align=center;verticalAlign=middle;resizable=0;labelBackgroundColor=white;spacing=5" vertex="1" parent="1">
                <mxGeometry x="30" y="30" width="444" height="24" as="geometry"/>
              </mxCell>
<mxCell id="Data_Layer" value="" style="html=1;whiteSpace=wrap;container=1;fillColor=#dae8fc;strokeColor=#6c8ebf;dashed=1;fillOpacity=20;strokeWidth=2;containerType=none;recursiveResize=0;movable=1;resizable=1;autosize=0;dropTarget=0" vertex="1" parent="1">
                <mxGeometry x="283.5" y="1002" width="311" height="380" as="geometry"/>
              </mxCell>
              <mxCell id="Data_Layer_label" value="Data_Layer" style="edgeLabel;html=1;align=center;verticalAlign=middle;resizable=0;labelBackgroundColor=white;spacing=5" vertex="1" parent="1">
                <mxGeometry x="291.5" y="1010" width="235" height="24" as="geometry"/>
              </mxCell>
<mxCell id="API_Layer" value="" style="html=1;whiteSpace=wrap;container=1;fillColor=#dae8fc;strokeColor=#6c8ebf;dashed=1;fillOpacity=20;strokeWidth=2;containerType=none;recursiveResize=0;movable=1;resizable=1;autosize=0;dropTarget=0" vertex="1" parent="1">
                <mxGeometry x="734" y="262" width="311" height="380" as="geometry"/>
              </mxCell>
              <mxCell id="API_Layer_label" value="API_Layer" style="edgeLabel;html=1;align=center;verticalAlign=middle;resizable=0;labelBackgroundColor=white;spacing=5" vertex="1" parent="1">
                <mxGeometry x="742" y="270" width="235" height="24" as="geometry"/>
              </mxCell>
<mxCell id="Core_Modules" value="" style="html=1;whiteSpace=wrap;container=1;fillColor=#dae8fc;strokeColor=#6c8ebf;dashed=1;fillOpacity=20;strokeWidth=2;containerType=none;recursiveResize=0;movable=1;resizable=1;autosize=0;dropTarget=0" vertex="1" parent="1">
                <mxGeometry x="532" y="22" width="940" height="220" as="geometry"/>
              </mxCell>
              <mxCell id="Core_Modules_label" value="Core_Modules" style="edgeLabel;html=1;align=center;verticalAlign=middle;resizable=0;labelBackgroundColor=white;spacing=5" vertex="1" parent="1">
                <mxGeometry x="540" y="30" width="864" height="24" as="geometry"/>
              </mxCell>
<mxCell id="Authentication" value="" style="html=1;whiteSpace=wrap;container=1;fillColor=#dae8fc;strokeColor=#6c8ebf;dashed=1;fillOpacity=20;strokeWidth=2;containerType=none;recursiveResize=0;movable=1;resizable=1;autosize=0;dropTarget=0" vertex="1" parent="1">
                <mxGeometry x="822" y="662" width="380" height="320" as="geometry"/>
              </mxCell>
              <mxCell id="Authentication_label" value="Authentication" style="edgeLabel;html=1;align=center;verticalAlign=middle;resizable=0;labelBackgroundColor=white;spacing=5" vertex="1" parent="1">
                <mxGeometry x="830" y="670" width="304" height="24" as="geometry"/>
              </mxCell>
              <mxCell id="auth" value="Authentication Service" style="rounded=1;whiteSpace=wrap;html=1;fillColor=#f5f5f5" vertex="1" parent="Authentication">
                    <mxGeometry x="76" y="120" width="120" height="60" as="geometry"/>
                  </mxCell>
<mxCell id="roles" value="Role Management" style="rounded=1;whiteSpace=wrap;html=1;fillColor=#f5f5f5" vertex="1" parent="Authentication">
                    <mxGeometry x="40" y="220" width="120" height="60" as="geometry"/>
                  </mxCell>
<mxCell id="perms" value="Permissions" style="rounded=1;whiteSpace=wrap;html=1;fillColor=#f5f5f5" vertex="1" parent="Authentication">
                    <mxGeometry x="180" y="220" width="120" height="60" as="geometry"/>
                  </mxCell>
<mxCell id="connector" value="Connector Module" style="rounded=1;whiteSpace=wrap;html=1;fillColor=#f5f5f5" vertex="1" parent="Core_Modules">
                    <mxGeometry x="460" y="120" width="120" height="60" as="geometry"/>
                  </mxCell>
<mxCell id="essentials" value="Essentials Module" style="rounded=1;whiteSpace=wrap;html=1;fillColor=#f5f5f5" vertex="1" parent="Core_Modules">
                    <mxGeometry x="40" y="120" width="120" height="60" as="geometry"/>
                  </mxCell>
<mxCell id="manufacturing" value="Manufacturing Module" style="rounded=1;whiteSpace=wrap;html=1;fillColor=#f5f5f5" vertex="1" parent="Core_Modules">
                    <mxGeometry x="180" y="120" width="120" height="60" as="geometry"/>
                  </mxCell>
<mxCell id="project" value="Project Module" style="rounded=1;whiteSpace=wrap;html=1;fillColor=#f5f5f5" vertex="1" parent="Core_Modules">
                    <mxGeometry x="740" y="120" width="120" height="60" as="geometry"/>
                  </mxCell>
<mxCell id="repair" value="Repair Module" style="rounded=1;whiteSpace=wrap;html=1;fillColor=#f5f5f5" vertex="1" parent="Core_Modules">
                    <mxGeometry x="320" y="120" width="120" height="60" as="geometry"/>
                  </mxCell>
<mxCell id="superadmin" value="Superadmin Module" style="rounded=1;whiteSpace=wrap;html=1;fillColor=#f5f5f5" vertex="1" parent="Core_Modules">
                    <mxGeometry x="600" y="120" width="120" height="60" as="geometry"/>
                  </mxCell>
<mxCell id="api" value="API Gateway" style="rounded=1;whiteSpace=wrap;html=1;fillColor=#f5f5f5" vertex="1" parent="API_Layer">
                    <mxGeometry x="111" y="120" width="120" height="60" as="geometry"/>
                  </mxCell>
<mxCell id="middleware" value="API Middleware" style="rounded=1;whiteSpace=wrap;html=1;fillColor=#f5f5f5" vertex="1" parent="API_Layer">
                    <mxGeometry x="91" y="200" width="120" height="60" as="geometry"/>
                  </mxCell>
<mxCell id="routes" value="Route Handler" style="rounded=1;whiteSpace=wrap;html=1;fillColor=#f5f5f5" vertex="1" parent="API_Layer">
                    <mxGeometry x="40" y="280" width="120" height="60" as="geometry"/>
                  </mxCell>
<mxCell id="cache" value="Cache" style="rounded=1;whiteSpace=wrap;html=1;fillColor=#f5f5f5" vertex="1" parent="Data_Layer">
                    <mxGeometry x="111" y="200" width="120" height="60" as="geometry"/>
                  </mxCell>
<mxCell id="db" value="Database" style="rounded=1;whiteSpace=wrap;html=1;fillColor=#f5f5f5" vertex="1" parent="Data_Layer">
                    <mxGeometry x="40" y="280" width="120" height="60" as="geometry"/>
                  </mxCell>
<mxCell id="transactions" value="Transaction Manager" style="rounded=1;whiteSpace=wrap;html=1;fillColor=#f5f5f5" vertex="1" parent="Data_Layer">
                    <mxGeometry x="40" y="120" width="120" height="60" as="geometry"/>
                  </mxCell>
<mxCell id="i18n" value="Internationalization" style="rounded=1;whiteSpace=wrap;html=1;fillColor=#f5f5f5" vertex="1" parent="Services">
                    <mxGeometry x="320" y="120" width="120" height="60" as="geometry"/>
                  </mxCell>
<mxCell id="logging" value="Logging Service" style="rounded=1;whiteSpace=wrap;html=1;fillColor=#f5f5f5" vertex="1" parent="Services">
                    <mxGeometry x="180" y="120" width="120" height="60" as="geometry"/>
                  </mxCell>
<mxCell id="events" value="Event System" style="rounded=1;whiteSpace=wrap;html=1;fillColor=#f5f5f5" vertex="1" parent="Services">
                    <mxGeometry x="40" y="120" width="120" height="60" as="geometry"/>
                  </mxCell>
              <mxCell id="edge-L_auth_roles_0" style="edgeStyle=orthogonalEdgeStyle;rounded=1;orthogonalLoop=1;jettySize=auto;html=1;strokeColor=#808080;strokeWidth=2;jumpStyle=arc;jumpSize=10;spacing=15;labelBackgroundColor=white;labelBorderColor=none" edge="1" parent="1" source="auth" target="roles">
                  <mxGeometry relative="1" as="geometry"/>
                </mxCell>
<mxCell id="edge-L_auth_perms_1" style="edgeStyle=orthogonalEdgeStyle;rounded=1;orthogonalLoop=1;jettySize=auto;html=1;strokeColor=#808080;strokeWidth=2;jumpStyle=arc;jumpSize=10;spacing=15;labelBackgroundColor=white;labelBorderColor=none" edge="1" parent="1" source="auth" target="perms">
                  <mxGeometry relative="1" as="geometry"/>
                </mxCell>
<mxCell id="edge-L_api_middleware_2" style="edgeStyle=orthogonalEdgeStyle;rounded=1;orthogonalLoop=1;jettySize=auto;html=1;strokeColor=#808080;strokeWidth=2;jumpStyle=arc;jumpSize=10;spacing=15;labelBackgroundColor=white;labelBorderColor=none" edge="1" parent="1" source="api" target="middleware">
                  <mxGeometry relative="1" as="geometry"/>
                </mxCell>
<mxCell id="edge-L_middleware_routes_3" style="edgeStyle=orthogonalEdgeStyle;rounded=1;orthogonalLoop=1;jettySize=auto;html=1;strokeColor=#808080;strokeWidth=2;jumpStyle=arc;jumpSize=10;spacing=15;labelBackgroundColor=white;labelBorderColor=none" edge="1" parent="1" source="middleware" target="routes">
                  <mxGeometry relative="1" as="geometry"/>
                </mxCell>
<mxCell id="edge-L_db_transactions_4" style="edgeStyle=orthogonalEdgeStyle;rounded=1;orthogonalLoop=1;jettySize=auto;html=1;strokeColor=#808080;strokeWidth=2;jumpStyle=arc;jumpSize=10;spacing=15;labelBackgroundColor=white;labelBorderColor=none" edge="1" parent="1" source="db" target="transactions">
                  <mxGeometry relative="1" as="geometry"/>
                </mxCell>
<mxCell id="edge-L_cache_db_5" style="edgeStyle=orthogonalEdgeStyle;rounded=1;orthogonalLoop=1;jettySize=auto;html=1;strokeColor=#808080;strokeWidth=2;jumpStyle=arc;jumpSize=10;spacing=15;labelBackgroundColor=white;labelBorderColor=none" edge="1" parent="1" source="cache" target="db">
                  <mxGeometry relative="1" as="geometry"/>
                </mxCell>
<mxCell id="edge-L_connector_api_6" style="edgeStyle=orthogonalEdgeStyle;rounded=1;orthogonalLoop=1;jettySize=auto;html=1;strokeColor=#808080;strokeWidth=2;jumpStyle=arc;jumpSize=10;spacing=15;labelBackgroundColor=white;labelBorderColor=none" edge="1" parent="1" source="connector" target="api">
                  <mxGeometry relative="1" as="geometry"/>
                </mxCell>
<mxCell id="edge-L_essentials_api_7" style="edgeStyle=orthogonalEdgeStyle;rounded=1;orthogonalLoop=1;jettySize=auto;html=1;strokeColor=#808080;strokeWidth=2;jumpStyle=arc;jumpSize=10;spacing=15;labelBackgroundColor=white;labelBorderColor=none" edge="1" parent="1" source="essentials" target="api">
                  <mxGeometry relative="1" as="geometry"/>
                </mxCell>
<mxCell id="edge-L_manufacturing_api_8" style="edgeStyle=orthogonalEdgeStyle;rounded=1;orthogonalLoop=1;jettySize=auto;html=1;strokeColor=#808080;strokeWidth=2;jumpStyle=arc;jumpSize=10;spacing=15;labelBackgroundColor=white;labelBorderColor=none" edge="1" parent="1" source="manufacturing" target="api">
                  <mxGeometry relative="1" as="geometry"/>
                </mxCell>
<mxCell id="edge-L_project_api_9" style="edgeStyle=orthogonalEdgeStyle;rounded=1;orthogonalLoop=1;jettySize=auto;html=1;strokeColor=#808080;strokeWidth=2;jumpStyle=arc;jumpSize=10;spacing=15;labelBackgroundColor=white;labelBorderColor=none" edge="1" parent="1" source="project" target="api">
                  <mxGeometry relative="1" as="geometry"/>
                </mxCell>
<mxCell id="edge-L_repair_api_10" style="edgeStyle=orthogonalEdgeStyle;rounded=1;orthogonalLoop=1;jettySize=auto;html=1;strokeColor=#808080;strokeWidth=2;jumpStyle=arc;jumpSize=10;spacing=15;labelBackgroundColor=white;labelBorderColor=none" edge="1" parent="1" source="repair" target="api">
                  <mxGeometry relative="1" as="geometry"/>
                </mxCell>
<mxCell id="edge-L_superadmin_api_11" style="edgeStyle=orthogonalEdgeStyle;rounded=1;orthogonalLoop=1;jettySize=auto;html=1;strokeColor=#808080;strokeWidth=2;jumpStyle=arc;jumpSize=10;spacing=15;labelBackgroundColor=white;labelBorderColor=none" edge="1" parent="1" source="superadmin" target="api">
                  <mxGeometry relative="1" as="geometry"/>
                </mxCell>
<mxCell id="edge-L_api_auth_12" style="edgeStyle=orthogonalEdgeStyle;rounded=1;orthogonalLoop=1;jettySize=auto;html=1;strokeColor=#808080;strokeWidth=2;jumpStyle=arc;jumpSize=10;spacing=15;labelBackgroundColor=white;labelBorderColor=none" edge="1" parent="1" source="api" target="auth">
                  <mxGeometry relative="1" as="geometry"/>
                </mxCell>
<mxCell id="edge-L_auth_perms_13" style="edgeStyle=orthogonalEdgeStyle;rounded=1;orthogonalLoop=1;jettySize=auto;html=1;strokeColor=#808080;strokeWidth=2;jumpStyle=arc;jumpSize=10;spacing=15;labelBackgroundColor=white;labelBorderColor=none" edge="1" parent="1" source="auth" target="perms">
                  <mxGeometry relative="1" as="geometry"/>
                </mxCell>
<mxCell id="edge-L_perms_routes_14" style="edgeStyle=orthogonalEdgeStyle;rounded=1;orthogonalLoop=1;jettySize=auto;html=1;strokeColor=#808080;strokeWidth=2;jumpStyle=arc;jumpSize=10;spacing=15;labelBackgroundColor=white;labelBorderColor=none" edge="1" parent="1" source="perms" target="routes">
                  <mxGeometry relative="1" as="geometry"/>
                </mxCell>
<mxCell id="edge-L_routes_transactions_15" style="edgeStyle=orthogonalEdgeStyle;rounded=1;orthogonalLoop=1;jettySize=auto;html=1;strokeColor=#808080;strokeWidth=2;jumpStyle=arc;jumpSize=10;spacing=15;labelBackgroundColor=white;labelBorderColor=none" edge="1" parent="1" source="routes" target="transactions">
                  <mxGeometry relative="1" as="geometry"/>
                </mxCell>
<mxCell id="edge-L_transactions_db_16" style="edgeStyle=orthogonalEdgeStyle;rounded=1;orthogonalLoop=1;jettySize=auto;html=1;strokeColor=#808080;strokeWidth=2;jumpStyle=arc;jumpSize=10;spacing=15;labelBackgroundColor=white;labelBorderColor=none" edge="1" parent="1" source="transactions" target="db">
                  <mxGeometry relative="1" as="geometry"/>
                </mxCell>
<mxCell id="edge-L_transactions_cache_17" style="edgeStyle=orthogonalEdgeStyle;rounded=1;orthogonalLoop=1;jettySize=auto;html=1;strokeColor=#808080;strokeWidth=2;jumpStyle=arc;jumpSize=10;spacing=15;labelBackgroundColor=white;labelBorderColor=none" edge="1" parent="1" source="transactions" target="cache">
                  <mxGeometry relative="1" as="geometry"/>
                </mxCell>
<mxCell id="edge-L_i18n_api_18" style="edgeStyle=orthogonalEdgeStyle;rounded=1;orthogonalLoop=1;jettySize=auto;html=1;strokeColor=#808080;strokeWidth=2;jumpStyle=arc;jumpSize=10;spacing=15;labelBackgroundColor=white;labelBorderColor=none" edge="1" parent="1" source="i18n" target="api">
                  <mxGeometry relative="1" as="geometry"/>
                </mxCell>
<mxCell id="edge-L_logging_transactions_19" style="edgeStyle=orthogonalEdgeStyle;rounded=1;orthogonalLoop=1;jettySize=auto;html=1;strokeColor=#808080;strokeWidth=2;jumpStyle=arc;jumpSize=10;spacing=15;labelBackgroundColor=white;labelBorderColor=none" edge="1" parent="1" source="logging" target="transactions">
                  <mxGeometry relative="1" as="geometry"/>
                </mxCell>
<mxCell id="edge-L_events_transactions_20" style="edgeStyle=orthogonalEdgeStyle;rounded=1;orthogonalLoop=1;jettySize=auto;html=1;strokeColor=#808080;strokeWidth=2;jumpStyle=arc;jumpSize=10;spacing=15;labelBackgroundColor=white;labelBorderColor=none" edge="1" parent="1" source="events" target="transactions">
                  <mxGeometry relative="1" as="geometry"/>
                </mxCell>
<mxCell id="edge-L_middleware_auth_21" style="edgeStyle=orthogonalEdgeStyle;rounded=1;orthogonalLoop=1;jettySize=auto;html=1;strokeColor=#808080;strokeWidth=2;jumpStyle=arc;jumpSize=10;spacing=15;labelBackgroundColor=white;labelBorderColor=none" edge="1" parent="1" source="middleware" target="auth">
                  <mxGeometry relative="1" as="geometry"/>
                </mxCell>
<mxCell id="edge-L_auth_cache_22" style="edgeStyle=orthogonalEdgeStyle;rounded=1;orthogonalLoop=1;jettySize=auto;html=1;strokeColor=#808080;strokeWidth=2;jumpStyle=arc;jumpSize=10;spacing=15;labelBackgroundColor=white;labelBorderColor=none" edge="1" parent="1" source="auth" target="cache">
                  <mxGeometry relative="1" as="geometry"/>
                </mxCell>
            </root>
          </mxGraphModel>
        </diagram>
      </mxfile>